<?xml version="1.0" encoding="utf-8"?>
<!-- Generator: Adobe Illustrator 19.2.1, SVG Export Plug-In . SVG Version: 6.00 Build 0)  -->
<svg version="1.1" id="Layer_1" xmlns="http://www.w3.org/2000/svg" xmlns:xlink="http://www.w3.org/1999/xlink" x="0px" y="0px"
	 viewBox="0 0 182.6 118.5" style="enable-background:new 0 0 182.6 118.5;" xml:space="preserve">
<style type="text/css">
	.st0{fill:#00853E;}
</style>
<polygon class="st0" points="135.6,0 130.5,14.3 138.3,14.3 140.3,8.8 148,8.8 148,47.8 143.6,47.8 140.4,56.6 162.1,56.6 
	165.4,47.8 159.3,47.8 159.3,8.8 168.4,8.8 168.3,14.3 173.8,14.3 178.9,0 "/>
<path class="st0" d="M48.3,0L45,8.8h5.5v25.6c0,4.7-0.9,7.3-3.2,9.7c-1.8,1.8-4.9,3-8,3c-3.8,0-7.2-1.3-9.4-3.5
	c-2.1-2.1-3.2-5.6-3.2-10.7V0.1h-16L7.6,8.8h6.8v24.4c0,22.9,17.8,24.6,23.3,24.6c14.1,0,23.3-9.1,23.3-23.3V8.8h4.1L68.2,0H48.3z"
	/>
<path class="st0" d="M125.5,8.8v47.8h-6.7c0,0-31.1-32.7-33.2-34.9c0,4.6,0,26.1,0,26.1h6.1l-3.2,8.8h-20l3.2-8.8h3.4v-39h-7.3
	L71.1,0h12.3c0,0,23.7,24.8,32,33.5c0-2.7,0-24.7,0-24.7h-6l3.1-8.8H133l-3.2,8.8L125.5,8.8z"/>
<path class="st0" d="M35.9,95.7c-2.7,0-5.1-1-6-2.4c-0.8-1.3-0.8-2.2-0.8-7.2v-3.8c0-0.5-0.8-0.5-1.2-0.5h-0.3l0.4-1h0.1
	c0.4,0,2.1,0.1,2.8,0.1c0.7,0,2.6-0.1,2.6-0.1l-0.4,1c-0.5,0-1.3,0.1-1.3,0.9v6.6c0,1.9,0,5,4,5c2.9,0,4.3-1.4,4.3-4.6v-7.3
	c0-0.5-1.1-0.5-1.1-0.5l0.3-1l0,0c0.2,0,1.2,0.1,1.9,0.1c0.9,0,2-0.1,2-0.1l-0.3,1h-0.2c-0.4,0-1,0.1-1,0.8l-0.1,6.6
	c0,1-0.1,3.3-1.3,4.7C39.3,95.1,37.4,95.7,35.9,95.7"/>
<path class="st0" d="M58.1,95.4c-2-2.2-3.2-3.5-4.2-4.5c-0.5-0.5-0.9-1-1.3-1.4l-1.5-1.6c-1.4-1.6-2.5-2.8-3.1-3.4
	c0.1,1,0,5.1,0,5.1l0.1,5.7l-1.4-0.1l-1.9,0.1l0.4-0.9c0.5,0,1.2-0.1,1.2-0.7v-0.6c0-0.6,0.1-1.5,0.1-3.2v-7.4c0-0.6-0.7-0.7-1-0.7
	l0.3-1l0,0c0.2,0,0.6,0.1,1,0.1c0.5,0,1.1-0.1,1.1-0.1c4.2,4.7,4.2,4.7,4.2,4.8c0,0,4.5,4.8,5.6,6c-0.1-1.8,0-8.5,0-8.5l-0.1-2.2
	h0.1c0.3,0,1,0.1,1.6,0.1c0.7,0,1.9-0.1,1.9-0.1l-0.3,1c-0.3,0-1.4,0-1.4,0.6c0,0-0.1,5.9-0.1,7.5c0,1.7,0.1,4.2,0.1,5.4L58.1,95.4
	L58.1,95.4z"/>
<path class="st0" d="M63.9,94.4h0.2c0.3,0,0.9-0.1,0.9-0.6V82.5c0-0.6-0.8-0.7-1.3-0.7c-0.2,0-0.3,0-0.3,0l0.3-1c0,0,0,0,0.1,0
	c0.3,0,1.3,0.1,2.4,0.1c1.2,0,2.4-0.1,2.4-0.1l-0.4,1c-0.4,0-0.9,0.1-0.9,0.7v11.4c0,0.2,0.1,0.4,0.4,0.5s0.6,0.1,0.8,0.1h0.2
	l-0.3,0.9l0,0c-0.2,0-1.1-0.1-2.3-0.1c-1.3,0-2.6,0.1-2.6,0.1h-0.1L63.9,94.4z"/>
<path class="st0" d="M76.9,95.4c0,0-1.5-3.5-3.2-7.3c-1-2.3-2.2-4.6-2.7-5.5l-0.2-0.3c-0.3-0.5-0.8-0.6-1.1-0.6c-0.1,0-0.2,0-0.2,0
	l0.3-1l0,0c0.1,0,0.7,0.1,1.4,0.1c0.8,0,1.5-0.1,1.5-0.1l4.1,8.7c0.7,1.6,0.9,2.2,1.1,3.2c0.1-0.5,2.1-5,2.1-5.1c0,0,2-4.2,2.4-5.1
	c0.4-0.8,0.6-1.7,0.6-1.7l0,0c0.2,0,0.9,0.1,1.4,0.1c0.6,0,1.4-0.1,1.4-0.1l-0.4,1c-0.4,0-1,0.1-1.6,1.4c-0.4,0.9-2,4.3-2,4.3
	l-3.5,7.9L76.9,95.4L76.9,95.4z"/>
<path class="st0" d="M113.7,95.6c-2.2,0-4-0.1-6.1-2.4c-2.7-2.9-5.4-6-5.5-6.1c0.1,0.6,0.1,5.1,0.1,6.3c0,1.2,0.1,1.9,0.1,1.9
	s0,0-0.1,0c-0.2,0-0.7-0.1-1.4-0.1c-0.9,0-2.4,0.1-2.4,0.1l0.4-1c0.6,0,0.9-0.1,1.1-0.3c0.1-0.1,0.1-0.2,0.1-0.3V82.3
	c0-0.6-0.8-0.7-1.2-0.7l0.2-0.9c0,0,0,0,0.1,0c0.3,0,1.5,0.1,2.4,0.1c0.4,0,0.7,0,1,0c0.4,0,0.9-0.1,2.1-0.1c1.4,0,4,0.5,4,2.6
	c0,2.2-2.1,3.5-4,4c5.9,6,7.2,7,10,7c0.2,0,0.4,0,0.6-0.1c1.2-0.2,3-1.2,3-3c0-1.1,0.1-2.5-3.1-2.7c-2.5-0.2-3.9-1.3-3.9-3.4
	c0-1.1,0.4-2.2,1.2-3.1c1-1.1,2.5-1.7,4.2-1.7c2.1,0,3,1,3,1l-0.2,2.6l-1-0.1l-0.2-1.1c0-0.3-1-0.8-2.5-0.8c-1.6,0-2.6,0.9-2.6,2.4
	s1,2.2,3.4,2.4c2.5,0.2,3.8,1.4,3.8,3.4C120.3,93.2,117.1,95.6,113.7,95.6 M102.2,82.1c0,0,0,4.4,0,4.8c2.5-0.1,3.8-1.2,3.8-3
	c0-1.6-1.6-1.8-2.9-1.8C102.4,82.1,102.3,82.1,102.2,82.1"/>
<path class="st0" d="M6.9,117.6c-4.2,0-6.9-2.8-6.9-7.1c0-3.2,1.4-5.6,4.1-6.9c1.3-0.6,2.8-1,4.2-1c4.2,0,6.9,2.5,6.9,6.5
	C15.1,114.1,11.7,117.6,6.9,117.6 M7.4,104.2c-2.2,0-4.1,1.1-4.8,2.8c-0.4,0.8-0.6,1.9-0.6,3c0,2.6,0.8,4.2,2.7,5.3
	c0.9,0.6,2,0.9,3,0.9c3.2,0,5.3-2.5,5.3-6.3c0-2.4-0.9-4.1-2.7-5C9.5,104.4,8.5,104.2,7.4,104.2"/>
<path class="st0" d="M123.1,94.5h0.2c0.3,0,0.9-0.1,0.9-0.6V82.5c0-0.6-0.7-0.7-1.1-0.7c-0.2,0-0.3,0-0.3,0l0.3-1l0,0
	c0.2,0,1.1,0.1,2.2,0.1c1.2,0,2.7-0.1,2.7-0.1l-0.4,1c-0.5,0-1.2,0.1-1.2,0.7V94c0,0.2,0.1,0.4,0.4,0.5s0.6,0.1,0.8,0.1h0.2
	l-0.3,0.9l0,0c-0.2,0-1.1-0.1-2.3-0.1c-1.3,0-2.6,0.1-2.6,0.1h-0.1L123.1,94.5z"/>
<path class="st0" d="M147,95.3l-2.4,0.1l0.3-0.9c0,0,1.2-0.1,1.2-0.6v-4.1c0-0.7-0.6-1.5-1.5-2.7c-0.3-0.4-0.6-0.9-1-1.4
	c-2.3-3.4-2.6-3.5-3.8-3.5c-1.3,0-2.9,0-3,0.1v11.6c0,0.2,0.1,0.4,0.4,0.5c0.2,0.1,0.6,0.1,0.8,0.1h0.3l-0.3,1l0,0
	c-0.2,0-1.1-0.1-2.3-0.1c-1.3,0-2.6,0.1-2.6,0.1l0.4-1h0.2c0.4,0,0.9-0.1,0.9-0.6V82.2l0,0c0,0-0.3,0-1.7,0c-0.9,0-1.9,0-1.9,0
	c-0.8,0-1.2,1.1-1.2,1.2l-0.6-0.4l0.8-2.1l5.6,0.1l5.8-0.1c2.1,0,2.6,0.9,3.8,3c0.2,0.4,0.5,0.8,0.8,1.3c0.5,0.8,0.9,1.4,1.2,2
	l0.6,1c0.2-0.6,2-3.2,3.1-5c0.6-0.9,1-1.6,1.1-1.7c0.2-0.4,0.3-0.6,0.3-0.6s0,0,0.1,0s0.5,0.1,0.9,0.1c0.5,0,1.8-0.1,1.8-0.1h0.1
	l-0.1,0.2c-0.2,0.1-1.1,0.5-1.6,1.3c-0.1,0.2-0.4,0.5-0.6,0.9c-1.4,1.8-4.2,5.7-4.2,7V94c0,0.2,0.1,0.4,0.4,0.5
	c0.2,0.1,0.5,0.1,0.7,0.1s0.3,0,0.3,0l-0.4,1L147,95.3z"/>
<path class="st0" d="M17.8,116.3c0.6,0,1.3-0.1,1.3-1v-11.1c0-0.5-0.7-0.5-1.2-0.5c-0.2,0-0.3,0-0.3,0l0.4-0.9l0,0
	c0.2,0,0.8,0.1,2.2,0.1c1.6,0,4.9-0.1,4.9-0.1c1.2,0,1.6,0.3,1.6,0.3s-0.1,0.8-0.1,1.5v0.5l-0.9,0.5c-0.1-0.7-0.3-1.4-2.3-1.4h-2.2
	c0,0-0.1,0.4-0.1,1.1c0,0,0,3.2,0,3.7h5.1l-0.6,1.4h-4.5v5.5c0,0.2,0.1,0.4,0.4,0.5c0.2,0.1,0.5,0.1,0.7,0.1s0.3,0,0.3,0l-0.4,0.9
	l0,0c-0.2,0-0.9-0.1-2.2-0.1c-1.4,0-2.8,0.1-2.8,0.1H17L17.8,116.3z"/>
<path class="st0" d="M93.8,95.4c-1.7,0-3.8-0.1-5-0.1c-0.5,0-1,0-1.4,0.1c-0.3,0-0.6,0-0.8,0h-0.4l0.4-0.9c0.1,0,1.1,0,1.1-1
	c0-0.2,0-0.7,0-1.4c0-1.3,0.1-3.3,0.1-5.1c0-1.5,0-2.9-0.1-3.8v-0.8c0-0.5-0.6-0.5-0.9-0.5c-0.1,0-0.3,0-0.3,0l0.4-0.9l0,0
	c0.2,0,1.1,0.1,1.9,0.1c1.6,0,4.9-0.1,4.9-0.1c1.3,0,1.6,0.3,1.6,0.3s-0.1,0.8-0.1,1.4v0.5c0,0-0.8,0.5-0.9,0.5
	C94.2,83,94,82.3,92,82.3h-2.2c0,0-0.1,0.4-0.1,1.1v3.7h0.4h2.1h2.7l-0.7,1.5c0,0,0,0-0.1,0c-0.3,0-1,0-2,0c-0.7,0-1.5,0-1.9,0h-0.4
	v2.9c0,1.2,0,2,0.1,2.5h0.4c0.5,0,1.5,0.1,2,0.1c0.8,0,1.8,0,2.4-0.1l0.1-1.8l1.2,0.9v1.7c0,0.6,0.1,0.8,0.1,0.8L96,95.4H93.8z"/>
<path class="st0" d="M48.6,117.2c-2-2.2-3.2-3.5-4.1-4.5c-0.5-0.5-0.9-1-1.3-1.4L42,110c-1.6-1.7-2.8-3.1-3.4-3.7c0.1,1,0,5.1,0,5.1
	v5.7h-0.1c-0.2,0-0.6,0-1.2,0c-0.9,0-1.9,0.1-1.9,0.1l0.4-0.9c0.5,0,1.2-0.1,1.2-0.7V115c0-0.6,0-1.5,0-3.2c0,0,0-6.3,0-7.4
	c0-0.5-0.5-0.7-1.6-0.7h-0.3c0,0,0,0,0.4-0.9c0,0,0,0,0.1,0c0.3,0,1.3,0.1,1.7,0.1c0.5,0,1.1-0.1,1.1-0.1c4.2,4.7,4.2,4.7,4.2,4.7
	s4.4,4.8,5.6,6V105l-0.1-2.2c0,0,0,0,0.1,0c0.3,0,1,0.1,1.6,0.1c0.7,0,1.6-0.1,1.6-0.1l-0.3,1c-0.2,0-1.1,0.1-1.1,0.6
	c0,0-0.1,5.9-0.1,7.5c0,1.7,0.1,4.2,0.1,5.4L48.6,117.2L48.6,117.2z"/>
<path class="st0" d="M84,118.5c-0.6-0.3-1.4-1.2-2.3-2.3c-0.4-0.4-0.8-0.9-1.2-1.4c-2.7-3-5.4-6-5.5-6.1c0.1,0.6,0.1,5.1,0.1,6.3
	c0,1.2,0.1,1.9,0.1,1.9s0,0-0.1,0c-0.2,0-0.7-0.1-1.4-0.1c-0.9,0-2.4,0.1-2.4,0.1l0.4-1c0.6,0,0.9-0.1,1.1-0.3
	c0.1-0.1,0.1-0.2,0.1-0.3l0.2-6.8c0-1.8-0.1-3.1-0.2-3.9c0-0.3,0-0.6,0-0.7c0-0.6-0.8-0.7-1.2-0.7l0.2-1c0,0,0,0,0.1,0
	c0.3,0,1.5,0.1,2.5,0.1c0.4,0,0.7,0,1,0c0.4,0,0.9-0.1,2.1-0.1c1.4,0,4,0.5,4,2.6c0,2.2-1.7,3.2-3.3,3.8c-0.2,0.1-0.6,0.2-0.6,0.2
	c0.4,0.2,1.8,1.7,3.5,3.4c1.4,1.4,2.9,3,4.1,4.2c0.7,0.7,1.1,1,2,1.7l0.1,0.1L84,118.5z M76.2,103.8c-0.8,0-1,0.1-1,0.1v4.8
	c0.4,0,1.4,0,2.2-0.4c1.1-0.5,1.6-1.3,1.6-2.6C79,104.4,78.2,103.8,76.2,103.8"/>
<path class="st0" d="M60.6,117.5c-4.2,0-7-2.8-7-7.1c0-3.3,1.4-5.7,4.1-7c1.3-0.6,2.8-1,4.2-1c4.3,0,7,2.5,7,6.6
	C68.9,113.9,65.4,117.5,60.6,117.5 M61.1,104c-2.1,0-4,1.1-4.8,2.8c-0.4,0.8-0.6,1.9-0.6,3c0,2.5,0.8,4.2,2.7,5.3
	c0.9,0.5,1.9,0.8,3,0.8c3.1,0,5.3-2.5,5.3-6.2c0-2.4-0.9-4-2.7-5C63.2,104.3,62.2,104,61.1,104"/>
<path class="st0" d="M88.2,116.2c0.4,0,0.8-0.1,0.8-0.6l0.1-6.8L89,104c0,0-0.3,0-1.7,0c-0.9,0-1.9,0-1.9,0c-0.8,0-1.2,1.1-1.2,1.2
	l-0.6-0.4l0.8-2.1l5.6,0.1l6.3-0.1L96,105h-0.6c0,0,0-0.5-0.3-0.9c-0.2-0.2-0.4-0.3-0.7-0.3c-1.3,0-3,0-3.1,0.1v0.6
	c0,0.9-0.1,2.5-0.1,4.2c0,2.1,0,4.4,0.1,5.7v1.1c0,0.2,0.2,0.4,0.4,0.5c0.3,0.1,0.6,0.1,0.8,0.1h0.2l-0.3,0.9l0,0
	c-0.2,0-1.1-0.1-2.3-0.1c-1.3,0-2.2,0.1-2.2,0.1h-0.1L88.2,116.2z"/>
<path class="st0" d="M108.8,116.2h0.2c0.3,0,0.9-0.1,0.9-0.6v-5.4c0,0-0.1,0-0.4,0c-0.6,0-2,0-3.9,0c-2.8,0-4.1,0.1-4.1,0.1v5.3
	c0,0.2,0.1,0.4,0.4,0.5s0.6,0.1,0.8,0.1h0.2l-0.3,1l0,0c-0.2,0-1.1-0.1-2.3-0.1c-1.3,0-2.6,0.1-2.6,0.1l0.4-1h0.2
	c0.3,0,0.9-0.1,0.9-0.6l0.2-6.9l-0.2-4.5c0-0.6-0.7-0.7-1.1-0.7c-0.1,0-0.2,0-0.2,0l0.3-1l0,0c0.2,0,1.1,0.1,2.2,0.1
	c1.2,0,2.7-0.1,2.7-0.1l-0.4,1c-0.5,0-1.1,0.1-1.1,0.7v4.5c0,0,0.2,0,0.4,0c0.8,0,2.4,0,3.7,0c1.7,0,4.3-0.1,4.3-0.1v-4.5
	c0-0.6-0.7-0.7-1.1-0.7c-0.1,0-0.3,0-0.3,0l0.3-1l0,0c0.2,0,1.1,0.1,2.2,0.1c1.2,0,2.7-0.1,2.7-0.1l-0.4,1c-0.6,0-1.2,0.1-1.2,0.7
	c0,0.1,0,0.3,0,0.6c-0.1,0.8-0.2,2.3-0.2,3.9c0,2.1,0.1,4.4,0.2,5.8c0,0.6,0,1,0,1.2c0,0.5,0.8,0.5,1.2,0.5h0.2l-0.3,1l0,0
	c-0.2,0-1.1-0.1-2.3-0.1c-1.3,0-2.6,0.1-2.6,0.1h-0.1L108.8,116.2z"/>
<path class="st0" d="M144.7,118.4c0,0,0.8-0.7,1.5-1.4c0.8-0.8,3.8-4.5,5.1-6.2l0.5-0.6c-0.2-0.3-0.4-0.5-0.4-0.6
	c-0.3-0.4-0.5-0.8-0.8-1.2c-0.3-0.5-0.7-1.1-1.2-1.9c-1.8-2.6-2.1-2.8-3.3-2.8l0.3-0.9l1.5,0.1c0.4,0,1.6-0.1,1.6-0.1s2.2,3.4,3.3,5
	l0.5,0.7c0-0.1,0.1-0.3,0.3-0.5c0.5-0.7,1.3-1.6,1.9-2.5c0.8-1,1.5-1.9,1.6-2.1c0.2-0.4,0.2-0.6,0.2-0.6s0,0,0.1,0
	c0.2,0,0.7,0,1.2,0s1.4,0,1.4,0c0,0.1-0.9,0.5-1.5,1.3l-1,1.3c-0.9,1.2-2.1,2.9-3,4l-0.3,0.3c-0.1,0.1,0,0.2,0.1,0.3
	c0.1,0.1,0.2,0.3,0.3,0.3c0.6,0.9,2.7,3.9,3.7,5.3c0.2,0.3,0.3,0.5,0.4,0.5c0.1,0,0.1,0,0.2-0.2l2.5-5.5l3.5-7.9h1.6
	c0,0.1,0.7,2,2.4,5.7c1.9,4.3,2.7,5.7,3.7,7.5c0.1,0.2,0.6,0.7,1.3,0.7l0.2-2.8l1,0.1l0.2,1.2c0,0.3,1.1,0.9,2.6,0.9
	c0.9,0,1.7-0.3,2.1-0.8c0.4-0.4,0.6-1,0.6-1.6c0-1.5-1.1-2.3-3.6-2.5s-3.9-1.5-3.9-3.5c0-0.9,0.3-1.9,0.9-2.7c1-1.4,2.7-2.1,4.7-2.1
	c0.7,0,1.3,0.1,1.9,0.3c0.8,0.3,1.2,0.7,1.2,0.7l-0.2,2.7l-1-0.1l-0.2-1.2c0-0.3-1.1-0.9-2.5-0.9c-1.6,0-2.6,0.9-2.7,2.2
	c0,1.7,1.1,2.5,3.5,2.7c2.5,0.2,3.9,1.5,3.9,3.5c0,0.9-0.3,1.8-0.9,2.7c-1,1.3-2.7,2.1-4.7,2.1c-0.7,0-1.3-0.1-1.9-0.3l-0.7-0.1
	l-0.1,0.2l0,0c-0.2,0-1.5-0.1-2.2-0.1s-1.4,0.1-1.4,0.1l-2.5-5.4c0,0-0.1,0-0.2,0c-0.4,0-1.3,0-2.8,0c-2,0-2.6,0-2.6,0L162,113
	c-0.5,1-1,2.1-1.1,2.4c-0.1,0.2-0.1,0.4,0,0.5c0.2,0.3,0.9,0.4,1.3,0.4l-0.2,0.9c0,0,0,0-0.1,0c-0.4,0-2.6-0.1-3.3-0.1
	c-1,0-2,0.1-2,0.1c-0.8-1.2-2-3-2.9-4.3L153,112c-0.1-0.1-0.1-0.2-0.2-0.3l-0.4,0.3l-1.6,2c-1.3,1.6-2.9,3.7-3,3.8
	c-0.2,0.4-0.4,0.5-0.4,0.5L144.7,118.4L144.7,118.4z M163.3,110.3c0.2,0,1,0,1.9,0c1.1,0,2.2-0.1,2.2-0.1l-0.8-1.9l-0.7-1.6
	c-0.3-0.6-0.5-1.1-0.6-1.5C165,106.2,163.3,110.2,163.3,110.3C163.2,110.3,163.2,110.3,163.3,110.3"/>
<path class="st0" d="M125.8,116.3c0.4,0,0.8-0.1,0.8-0.6l0.1-6.8l-0.1-4.9c0,0-0.3,0-1.7,0c-0.9,0-1.9,0-1.9,0
	c-0.8,0-1.2,1.1-1.2,1.2l-0.6-0.4l0.8-2.1l5.6,0.1l6.3-0.1l-0.2,2.3h-0.6c0,0,0-0.5-0.3-0.9c-0.2-0.2-0.4-0.3-0.7-0.3
	c-1.3,0-3,0-3.1,0.1v0.6c0,0.9-0.1,2.5-0.1,4.2c0,2.1,0,4.4,0.1,5.7v1.1c0,0.2,0.1,0.4,0.4,0.5c0.2,0.1,0.5,0.1,0.8,0.1h0.2l-0.3,1
	l0,0c-0.2,0-1.1-0.1-2.3-0.1c-1.3,0-2.2,0.1-2.2,0.1h-0.1L125.8,116.3z"/>
<path class="st0" d="M143.7,117.3h-1.6c-1.4,0-3.1-0.1-4.2-0.1c-0.9,0-2.6,0.1-2.6,0.1l0.4-0.9c0,0,0.3,0,0.6-0.1
	c0.4-0.2,0.5-0.5,0.5-0.9c0-0.2,0-0.7,0-1.4c0-1.3,0.1-3.2,0.1-5.1c0-1.5,0-2.9-0.1-3.8v-0.8c0-0.5-0.7-0.5-1.2-0.5
	c-0.2,0-0.3,0-0.3,0l0.4-0.9h0.1c0.3,0,1.4,0.1,2.2,0.1c1.6,0,4.9-0.1,4.9-0.1c1.3,0,1.6,0.3,1.6,0.3s0,0.8,0,1.4v0.5
	c0,0-0.8,0.5-0.9,0.5c-0.1-0.7-0.3-1.4-2.3-1.4h-2.2c0,0-0.1,0.4-0.1,1.1v3.7h0.4h2.1h3.1l-0.7,1.5c0,0-0.1,0-0.2,0
	c-0.4,0-1.4,0-2.3,0c-0.7,0-1.5,0-1.9,0h-0.4c0,0.6,0,2.5,0,2.5v0.3c0,1.2,0,2,0.1,2.5h0.3c0.5,0,1.5,0.1,2.1,0.1
	c0.8,0,1.3,0,1.9-0.1l0.1-1.8l1.2,0.9v1.7c0,0.6,0.1,0.8,0.1,0.8v0.1h-0.1L143.7,117.3z"/>
<g>
	<g>
		<path class="st0" d="M179.6,8.6c1.5,0,2.6,1.2,2.6,2.7s-1.2,2.7-2.6,2.7s-2.6-1.2-2.6-2.7S178.1,8.6,179.6,8.6 M179.6,8.3
			c-1.7,0-3,1.3-3,3s1.3,3,3,3s3-1.3,3-3S181.3,8.3,179.6,8.3L179.6,8.3z"/>
	</g>
	<g>
		<path class="st0" d="M178.6,9.4h0.9c0.2,0,0.3,0,0.5,0c0.2,0,0.3,0.1,0.5,0.1c0.1,0.1,0.2,0.2,0.3,0.3s0.1,0.3,0.1,0.5
			c0,0.3-0.1,0.5-0.2,0.6c-0.2,0.2-0.4,0.3-0.6,0.3l1,1.6h-0.5l-1-1.6h-0.5V13h-0.4V9.4z M179.1,11h0.4c0.1,0,0.2,0,0.4,0
			c0.1,0,0.2,0,0.3-0.1c0.1,0,0.2-0.1,0.3-0.2c0.1-0.1,0.1-0.2,0.1-0.3c0-0.1,0-0.2-0.1-0.3c-0.1-0.1-0.1-0.1-0.2-0.2
			c-0.1,0-0.2-0.1-0.3-0.1s-0.2,0-0.3,0h-0.6V11z"/>
	</g>
</g>
</svg>
